<?xml version="1.0" standalone="no"?>
<!DOCTYPE svg PUBLIC "-//W3C//DTD SVG 20010904//EN"
 "http://www.w3.org/TR/2001/REC-SVG-20010904/DTD/svg10.dtd">
<svg version="1.0" xmlns="http://www.w3.org/2000/svg"
 width="640.000000pt" height="640.000000pt" viewBox="0 0 640.000000 640.000000"
 preserveAspectRatio="xMidYMid meet">

<g transform="translate(0.000000,640.000000) scale(0.100000,-0.100000)"
fill="#000000" stroke="none">
<path d="M0 3200 l0 -3200 3200 0 3200 0 0 3200 0 3200 -3200 0 -3200 0 0
-3200z m2825 519 c272 -23 413 -97 492 -257 38 -76 38 -76 41 -222 3 -128 1
-153 -18 -209 -35 -106 -83 -165 -179 -221 -206 -120 -675 -125 -893 -8 -80
42 -159 128 -188 203 -27 72 -39 256 -21 349 45 242 224 349 626 375 11 0 74
-4 140 -10z m1402 1 c144 -13 217 -30 308 -74 119 -56 204 -160 222 -271 l6
-35 -197 0 c-192 0 -198 1 -229 24 -41 30 -84 43 -172 51 -85 7 -193 -7 -243
-33 -60 -31 -82 -73 -82 -156 0 -91 20 -133 80 -166 41 -23 57 -25 196 -28
165 -4 218 5 261 43 l28 24 -135 1 c-74 0 -141 4 -148 9 -9 5 -12 29 -10 82
l3 74 319 3 c249 2 321 -1 328 -10 4 -7 8 -129 8 -270 0 -296 7 -278 -100
-278 -86 0 -97 8 -105 80 -4 33 -9 60 -12 60 -3 0 -31 -16 -61 -37 -113 -75
-293 -109 -488 -92 -271 23 -432 108 -507 268 -27 56 -31 77 -35 183 -6 148 8
234 52 313 41 75 120 140 213 177 104 40 135 46 373 67 8 0 65 -4 127 -9z
m-3432 -134 c50 -63 130 -166 179 -230 82 -106 117 -136 128 -107 3 9 74 101
271 352 l78 99 234 0 235 0 0 -480 0 -480 -187 2 -188 3 -3 238 c-1 130 -6
237 -10 237 -4 0 -53 -61 -107 -136 -55 -75 -134 -182 -175 -238 l-75 -101
-96 -3 -96 -3 -144 198 c-80 109 -158 217 -174 240 -53 75 -55 68 -55 -197 l0
-240 -185 0 -185 0 0 480 0 480 233 0 233 0 89 -114z m5178 77 c364 -172 364
-713 0 -886 l-68 -32 -485 0 -485 0 -3 465 c-1 256 0 471 3 478 4 11 98 12
487 10 l483 -3 68 -32z"/>
<path d="M2603 3410 c-64 -9 -120 -37 -147 -74 -16 -21 -22 -46 -24 -104 -4
-94 15 -136 76 -170 83 -46 303 -47 392 -2 61 31 80 69 80 161 0 86 -20 128
-76 161 -54 31 -190 44 -301 28z"/>
<path d="M5310 3220 c0 -93 3 -170 8 -170 4 -1 105 -1 224 -1 244 -1 263 3
303 71 26 46 27 150 2 198 -37 68 -55 72 -309 72 l-228 0 0 -170z"/>
</g>
</svg>
